%TF.GenerationSoftware,KiCad,Pcbnew,8.0.7*%
%TF.CreationDate,2025-06-23T15:52:58+10:00*%
%TF.ProjectId,solder,736f6c64-6572-42e6-9b69-6361645f7063,rev?*%
%TF.SameCoordinates,Original*%
%TF.FileFunction,Legend,Top*%
%TF.FilePolarity,Positive*%
%FSLAX46Y46*%
G04 Gerber Fmt 4.6, Leading zero omitted, Abs format (unit mm)*
G04 Created by KiCad (PCBNEW 8.0.7) date 2025-06-23 15:52:58*
%MOMM*%
%LPD*%
G01*
G04 APERTURE LIST*
G04 Aperture macros list*
%AMRoundRect*
0 Rectangle with rounded corners*
0 $1 Rounding radius*
0 $2 $3 $4 $5 $6 $7 $8 $9 X,Y pos of 4 corners*
0 Add a 4 corners polygon primitive as box body*
4,1,4,$2,$3,$4,$5,$6,$7,$8,$9,$2,$3,0*
0 Add four circle primitives for the rounded corners*
1,1,$1+$1,$2,$3*
1,1,$1+$1,$4,$5*
1,1,$1+$1,$6,$7*
1,1,$1+$1,$8,$9*
0 Add four rect primitives between the rounded corners*
20,1,$1+$1,$2,$3,$4,$5,0*
20,1,$1+$1,$4,$5,$6,$7,0*
20,1,$1+$1,$6,$7,$8,$9,0*
20,1,$1+$1,$8,$9,$2,$3,0*%
G04 Aperture macros list end*
%ADD10C,0.600000*%
%ADD11C,0.150000*%
%ADD12C,0.120000*%
%ADD13C,0.000000*%
%ADD14R,1.800000X1.800000*%
%ADD15C,1.800000*%
%ADD16C,1.500000*%
%ADD17C,1.440000*%
%ADD18R,1.100000X1.800000*%
%ADD19RoundRect,0.275000X0.275000X0.625000X-0.275000X0.625000X-0.275000X-0.625000X0.275000X-0.625000X0*%
G04 APERTURE END LIST*
D10*
X132687593Y-112101657D02*
X132401878Y-111958800D01*
X132401878Y-111958800D02*
X132259021Y-111815942D01*
X132259021Y-111815942D02*
X132116164Y-111530228D01*
X132116164Y-111530228D02*
X132116164Y-110673085D01*
X132116164Y-110673085D02*
X132259021Y-110387371D01*
X132259021Y-110387371D02*
X132401878Y-110244514D01*
X132401878Y-110244514D02*
X132687593Y-110101657D01*
X132687593Y-110101657D02*
X133116164Y-110101657D01*
X133116164Y-110101657D02*
X133401878Y-110244514D01*
X133401878Y-110244514D02*
X133544736Y-110387371D01*
X133544736Y-110387371D02*
X133687593Y-110673085D01*
X133687593Y-110673085D02*
X133687593Y-111530228D01*
X133687593Y-111530228D02*
X133544736Y-111815942D01*
X133544736Y-111815942D02*
X133401878Y-111958800D01*
X133401878Y-111958800D02*
X133116164Y-112101657D01*
X133116164Y-112101657D02*
X132687593Y-112101657D01*
X134973307Y-112101657D02*
X134973307Y-109101657D01*
X134973307Y-110244514D02*
X135259022Y-110101657D01*
X135259022Y-110101657D02*
X135830450Y-110101657D01*
X135830450Y-110101657D02*
X136116164Y-110244514D01*
X136116164Y-110244514D02*
X136259022Y-110387371D01*
X136259022Y-110387371D02*
X136401879Y-110673085D01*
X136401879Y-110673085D02*
X136401879Y-111530228D01*
X136401879Y-111530228D02*
X136259022Y-111815942D01*
X136259022Y-111815942D02*
X136116164Y-111958800D01*
X136116164Y-111958800D02*
X135830450Y-112101657D01*
X135830450Y-112101657D02*
X135259022Y-112101657D01*
X135259022Y-112101657D02*
X134973307Y-111958800D01*
X138116165Y-112101657D02*
X137830450Y-111958800D01*
X137830450Y-111958800D02*
X137687593Y-111815942D01*
X137687593Y-111815942D02*
X137544736Y-111530228D01*
X137544736Y-111530228D02*
X137544736Y-110673085D01*
X137544736Y-110673085D02*
X137687593Y-110387371D01*
X137687593Y-110387371D02*
X137830450Y-110244514D01*
X137830450Y-110244514D02*
X138116165Y-110101657D01*
X138116165Y-110101657D02*
X138544736Y-110101657D01*
X138544736Y-110101657D02*
X138830450Y-110244514D01*
X138830450Y-110244514D02*
X138973308Y-110387371D01*
X138973308Y-110387371D02*
X139116165Y-110673085D01*
X139116165Y-110673085D02*
X139116165Y-111530228D01*
X139116165Y-111530228D02*
X138973308Y-111815942D01*
X138973308Y-111815942D02*
X138830450Y-111958800D01*
X138830450Y-111958800D02*
X138544736Y-112101657D01*
X138544736Y-112101657D02*
X138116165Y-112101657D01*
X140401879Y-112101657D02*
X140401879Y-109101657D01*
X140401879Y-110244514D02*
X140687594Y-110101657D01*
X140687594Y-110101657D02*
X141259022Y-110101657D01*
X141259022Y-110101657D02*
X141544736Y-110244514D01*
X141544736Y-110244514D02*
X141687594Y-110387371D01*
X141687594Y-110387371D02*
X141830451Y-110673085D01*
X141830451Y-110673085D02*
X141830451Y-111530228D01*
X141830451Y-111530228D02*
X141687594Y-111815942D01*
X141687594Y-111815942D02*
X141544736Y-111958800D01*
X141544736Y-111958800D02*
X141259022Y-112101657D01*
X141259022Y-112101657D02*
X140687594Y-112101657D01*
X140687594Y-112101657D02*
X140401879Y-111958800D01*
D11*
X150031905Y-65494819D02*
X150031905Y-64494819D01*
X150031905Y-64494819D02*
X150270000Y-64494819D01*
X150270000Y-64494819D02*
X150412857Y-64542438D01*
X150412857Y-64542438D02*
X150508095Y-64637676D01*
X150508095Y-64637676D02*
X150555714Y-64732914D01*
X150555714Y-64732914D02*
X150603333Y-64923390D01*
X150603333Y-64923390D02*
X150603333Y-65066247D01*
X150603333Y-65066247D02*
X150555714Y-65256723D01*
X150555714Y-65256723D02*
X150508095Y-65351961D01*
X150508095Y-65351961D02*
X150412857Y-65447200D01*
X150412857Y-65447200D02*
X150270000Y-65494819D01*
X150270000Y-65494819D02*
X150031905Y-65494819D01*
X151555714Y-65494819D02*
X150984286Y-65494819D01*
X151270000Y-65494819D02*
X151270000Y-64494819D01*
X151270000Y-64494819D02*
X151174762Y-64637676D01*
X151174762Y-64637676D02*
X151079524Y-64732914D01*
X151079524Y-64732914D02*
X150984286Y-64780533D01*
X153104819Y-97526666D02*
X152628628Y-97859999D01*
X153104819Y-98098094D02*
X152104819Y-98098094D01*
X152104819Y-98098094D02*
X152104819Y-97717142D01*
X152104819Y-97717142D02*
X152152438Y-97621904D01*
X152152438Y-97621904D02*
X152200057Y-97574285D01*
X152200057Y-97574285D02*
X152295295Y-97526666D01*
X152295295Y-97526666D02*
X152438152Y-97526666D01*
X152438152Y-97526666D02*
X152533390Y-97574285D01*
X152533390Y-97574285D02*
X152581009Y-97621904D01*
X152581009Y-97621904D02*
X152628628Y-97717142D01*
X152628628Y-97717142D02*
X152628628Y-98098094D01*
X153104819Y-96574285D02*
X153104819Y-97145713D01*
X153104819Y-96859999D02*
X152104819Y-96859999D01*
X152104819Y-96859999D02*
X152247676Y-96955237D01*
X152247676Y-96955237D02*
X152342914Y-97050475D01*
X152342914Y-97050475D02*
X152390533Y-97145713D01*
D12*
%TO.C,D1*%
X148210000Y-67455000D02*
X148210000Y-70545000D01*
X148210000Y-67455170D02*
G75*
G02*
X153760000Y-68999952I2560000J-1544830D01*
G01*
X153760000Y-69000048D02*
G75*
G02*
X148210000Y-70544830I-2990000J48D01*
G01*
X153270000Y-69000000D02*
G75*
G02*
X148270000Y-69000000I-2500000J0D01*
G01*
X148270000Y-69000000D02*
G75*
G02*
X153270000Y-69000000I2500000J0D01*
G01*
D13*
%TO.C,G\u002A\u002A\u002A*%
G36*
X144589001Y-101882703D02*
G01*
X144623084Y-101993015D01*
X144612229Y-102068095D01*
X144561387Y-102152769D01*
X144462364Y-102256413D01*
X144345369Y-102352836D01*
X144240614Y-102415849D01*
X144198484Y-102426779D01*
X144165162Y-102386686D01*
X144111290Y-102283431D01*
X144068683Y-102187070D01*
X143969064Y-101947360D01*
X144098015Y-101897501D01*
X144319863Y-101832755D01*
X144485726Y-101828552D01*
X144589001Y-101882703D01*
G37*
G36*
X144868944Y-102706168D02*
G01*
X144947070Y-102802711D01*
X144980296Y-102940996D01*
X144930165Y-103067099D01*
X144792028Y-103189302D01*
X144698215Y-103246174D01*
X144542878Y-103329418D01*
X144449652Y-103367707D01*
X144399235Y-103365296D01*
X144372323Y-103326438D01*
X144369439Y-103318633D01*
X144346889Y-103238270D01*
X144314781Y-103105683D01*
X144301095Y-103045132D01*
X144281800Y-102884158D01*
X144319850Y-102781246D01*
X144428958Y-102717549D01*
X144563439Y-102684593D01*
X144747321Y-102668192D01*
X144868944Y-102706168D01*
G37*
G36*
X131959852Y-101471467D02*
G01*
X131974117Y-101587191D01*
X131977620Y-101752626D01*
X131969949Y-101945322D01*
X131950694Y-102142831D01*
X131948591Y-102158530D01*
X131926532Y-102278788D01*
X131887901Y-102348329D01*
X131813070Y-102374961D01*
X131682410Y-102366496D01*
X131503184Y-102335756D01*
X131390402Y-102298842D01*
X131348946Y-102249195D01*
X131349567Y-102243973D01*
X131382903Y-102173703D01*
X131456714Y-102054524D01*
X131556484Y-101906663D01*
X131667697Y-101750347D01*
X131775836Y-101605803D01*
X131866386Y-101493258D01*
X131924831Y-101432938D01*
X131935233Y-101427903D01*
X131959852Y-101471467D01*
G37*
G36*
X129497743Y-98592742D02*
G01*
X130195498Y-98648216D01*
X130916446Y-98758991D01*
X131668039Y-98926974D01*
X132457727Y-99154071D01*
X133292962Y-99442191D01*
X134181195Y-99793240D01*
X135118165Y-100203771D01*
X135433426Y-100343261D01*
X135772390Y-100485484D01*
X136105328Y-100618466D01*
X136402512Y-100730235D01*
X136568914Y-100787984D01*
X137507814Y-101048032D01*
X138480070Y-101221962D01*
X139479908Y-101310363D01*
X140501553Y-101313827D01*
X141539229Y-101232944D01*
X142587163Y-101068305D01*
X143639579Y-100820502D01*
X144690702Y-100490125D01*
X145734758Y-100077764D01*
X146367416Y-99785379D01*
X146625865Y-99657949D01*
X146872361Y-99534214D01*
X147086253Y-99424699D01*
X147246885Y-99339929D01*
X147306790Y-99306664D01*
X147437213Y-99240847D01*
X147534591Y-99208917D01*
X147568400Y-99212229D01*
X147557593Y-99262781D01*
X147507935Y-99385244D01*
X147425074Y-99567448D01*
X147314657Y-99797222D01*
X147182333Y-100062394D01*
X147092791Y-100237257D01*
X146948215Y-100518144D01*
X146819490Y-100770543D01*
X146712706Y-100982319D01*
X146633954Y-101141340D01*
X146589326Y-101235472D01*
X146581461Y-101255820D01*
X146626857Y-101264020D01*
X146754367Y-101271339D01*
X146950978Y-101277440D01*
X147203675Y-101281989D01*
X147499443Y-101284648D01*
X147720227Y-101285206D01*
X148055631Y-101286990D01*
X148350107Y-101292038D01*
X148591704Y-101299898D01*
X148768472Y-101310119D01*
X148868461Y-101322247D01*
X148886282Y-101329362D01*
X148860990Y-101376404D01*
X148765881Y-101479156D01*
X148605239Y-101633677D01*
X148383352Y-101836022D01*
X148104505Y-102082250D01*
X147772984Y-102368417D01*
X147556555Y-102552581D01*
X147204169Y-102839993D01*
X146790329Y-103159220D01*
X146333621Y-103497234D01*
X145852634Y-103841011D01*
X145365955Y-104177526D01*
X144892171Y-104493752D01*
X144449870Y-104776664D01*
X144057639Y-105013236D01*
X143989139Y-105052536D01*
X143142309Y-105501863D01*
X142319171Y-105874936D01*
X141524896Y-106169849D01*
X140764651Y-106384694D01*
X140043608Y-106517566D01*
X140003164Y-106522709D01*
X139750442Y-106543124D01*
X139421239Y-106553025D01*
X139033565Y-106552898D01*
X138605431Y-106543231D01*
X138154849Y-106524511D01*
X137699828Y-106497224D01*
X137258380Y-106461857D01*
X137068352Y-106443374D01*
X136507488Y-106378874D01*
X135960808Y-106301651D01*
X135414236Y-106208642D01*
X134853698Y-106096782D01*
X134265120Y-105963004D01*
X133634426Y-105804244D01*
X132947542Y-105617438D01*
X132190394Y-105399520D01*
X131955057Y-105329885D01*
X131118555Y-105083839D01*
X130364488Y-104868314D01*
X129951692Y-104754867D01*
X134594944Y-104754867D01*
X134635223Y-104857092D01*
X134735621Y-104915206D01*
X134865483Y-104913553D01*
X134890009Y-104905553D01*
X135023579Y-104820806D01*
X135174306Y-104672595D01*
X135322158Y-104485015D01*
X135447099Y-104282163D01*
X135498378Y-104173818D01*
X135571914Y-104015173D01*
X135634887Y-103930492D01*
X135701507Y-103901886D01*
X135714864Y-103901311D01*
X135758679Y-103908418D01*
X135793527Y-103939639D01*
X135824718Y-104009822D01*
X135857566Y-104133816D01*
X135897381Y-104326469D01*
X135931800Y-104507772D01*
X135987300Y-104785259D01*
X136036420Y-104983491D01*
X136083825Y-105117702D01*
X136134181Y-105203124D01*
X136150306Y-105221255D01*
X136288371Y-105309773D01*
X136433182Y-105318043D01*
X136558386Y-105244740D01*
X136560977Y-105241917D01*
X136628527Y-105129984D01*
X136665827Y-105015980D01*
X136666207Y-104885608D01*
X136637025Y-104693509D01*
X136584864Y-104465954D01*
X136516308Y-104229212D01*
X136437940Y-104009554D01*
X136381527Y-103881563D01*
X136355048Y-103827741D01*
X138311236Y-103827741D01*
X138317362Y-104115356D01*
X138366785Y-104521030D01*
X138464329Y-104857065D01*
X138607753Y-105118820D01*
X138794815Y-105301654D01*
X138923409Y-105370101D01*
X139120340Y-105413397D01*
X139344864Y-105412561D01*
X139526773Y-105372675D01*
X139707417Y-105272112D01*
X139829409Y-105138221D01*
X139874715Y-104990870D01*
X139874719Y-104989391D01*
X139845930Y-104864904D01*
X139755448Y-104804200D01*
X139597099Y-104804321D01*
X139519618Y-104819294D01*
X139305493Y-104847173D01*
X139146122Y-104810920D01*
X139018833Y-104701677D01*
X138947464Y-104595767D01*
X138832646Y-104337764D01*
X138768597Y-104057427D01*
X138755530Y-103777917D01*
X138793656Y-103522394D01*
X138883189Y-103314018D01*
X138935091Y-103247285D01*
X139051408Y-103159757D01*
X139178006Y-103150935D01*
X139338638Y-103219204D01*
X139339633Y-103219774D01*
X139484487Y-103275185D01*
X139583245Y-103260019D01*
X139631943Y-103188986D01*
X139626620Y-103076801D01*
X139563312Y-102938176D01*
X139517564Y-102881975D01*
X140118934Y-102881975D01*
X140126810Y-102997566D01*
X140141778Y-103155284D01*
X140165046Y-103369588D01*
X140194375Y-103622730D01*
X140227526Y-103896962D01*
X140262257Y-104174536D01*
X140296331Y-104437703D01*
X140327506Y-104668716D01*
X140353543Y-104849826D01*
X140372202Y-104963285D01*
X140378191Y-104989491D01*
X140436468Y-105025131D01*
X140568043Y-105039725D01*
X140753798Y-105034789D01*
X140974614Y-105011841D01*
X141211372Y-104972397D01*
X141444955Y-104917972D01*
X141508669Y-104899813D01*
X141711972Y-104832913D01*
X141840452Y-104773023D01*
X141912894Y-104710190D01*
X141934055Y-104674374D01*
X141955020Y-104568171D01*
X141898306Y-104505918D01*
X141760548Y-104485756D01*
X141610862Y-104496074D01*
X141423870Y-104516817D01*
X141204342Y-104539204D01*
X141079832Y-104551026D01*
X140786630Y-104577791D01*
X140762258Y-104322791D01*
X140746955Y-104163357D01*
X140725841Y-103944292D01*
X140702298Y-103700651D01*
X140689140Y-103564751D01*
X140645409Y-103224429D01*
X140586630Y-102934740D01*
X140516297Y-102707821D01*
X140437905Y-102555806D01*
X140406326Y-102524921D01*
X141642457Y-102524921D01*
X141680004Y-102763633D01*
X141708291Y-102880550D01*
X141820709Y-103291186D01*
X141924741Y-103618380D01*
X142025859Y-103872805D01*
X142129538Y-104065135D01*
X142241253Y-104206043D01*
X142366476Y-104306203D01*
X142466157Y-104358246D01*
X142665097Y-104411104D01*
X142881875Y-104417390D01*
X143068169Y-104376012D01*
X143077150Y-104372068D01*
X143199284Y-104272497D01*
X143308436Y-104104430D01*
X143390394Y-103894495D01*
X143426434Y-103717673D01*
X143429890Y-103550905D01*
X143413388Y-103321612D01*
X143381287Y-103059241D01*
X143337941Y-102793237D01*
X143287709Y-102553048D01*
X143234946Y-102368119D01*
X143221629Y-102333389D01*
X143122462Y-102148372D01*
X143014500Y-102035223D01*
X142908456Y-101998971D01*
X142815046Y-102044642D01*
X142766540Y-102119847D01*
X142741107Y-102207833D01*
X142742432Y-102321374D01*
X142772121Y-102486870D01*
X142794744Y-102583612D01*
X142838005Y-102800788D01*
X142876253Y-103062271D01*
X142902248Y-103317264D01*
X142904988Y-103357264D01*
X142914334Y-103623405D01*
X142900718Y-103807911D01*
X142859720Y-103922453D01*
X142786920Y-103978702D01*
X142677896Y-103988330D01*
X142666366Y-103987329D01*
X142589737Y-103971994D01*
X142526217Y-103934463D01*
X142470049Y-103862661D01*
X142415480Y-103744512D01*
X142356754Y-103567942D01*
X142288119Y-103320875D01*
X142217364Y-103045132D01*
X142136425Y-102740704D01*
X142066112Y-102519065D01*
X142001115Y-102369218D01*
X141936127Y-102280165D01*
X141865838Y-102240909D01*
X141827048Y-102236517D01*
X141714983Y-102266763D01*
X141653785Y-102361098D01*
X141642457Y-102524921D01*
X140406326Y-102524921D01*
X140383069Y-102502175D01*
X140309624Y-102480089D01*
X140238940Y-102524507D01*
X140199225Y-102569476D01*
X140145618Y-102650356D01*
X140120617Y-102744102D01*
X140118934Y-102881975D01*
X139517564Y-102881975D01*
X139452225Y-102801708D01*
X139267245Y-102661506D01*
X139081814Y-102615206D01*
X138887813Y-102661888D01*
X138776987Y-102725196D01*
X138575770Y-102907672D01*
X138432444Y-103148109D01*
X138344951Y-103452725D01*
X138311236Y-103827741D01*
X136355048Y-103827741D01*
X136266508Y-103647770D01*
X136540845Y-103334559D01*
X136719944Y-103126077D01*
X136842931Y-102970808D01*
X136919576Y-102853342D01*
X136959650Y-102758267D01*
X136972923Y-102670172D01*
X136973221Y-102652531D01*
X136945996Y-102529085D01*
X136865123Y-102482929D01*
X136731810Y-102513629D01*
X136547264Y-102620750D01*
X136312692Y-102803860D01*
X136150018Y-102948560D01*
X136012431Y-103069828D01*
X135909511Y-103149401D01*
X135853872Y-103178232D01*
X135849554Y-103164045D01*
X135867632Y-103077164D01*
X135886840Y-102921052D01*
X135904320Y-102721527D01*
X135912732Y-102592767D01*
X135923993Y-102375083D01*
X135925534Y-102229224D01*
X135913592Y-102132067D01*
X135884404Y-102060494D01*
X135834207Y-101991384D01*
X135810158Y-101962524D01*
X135712854Y-101874991D01*
X143603792Y-101874991D01*
X143616660Y-101987476D01*
X143654099Y-102162810D01*
X143718021Y-102409843D01*
X143810340Y-102737427D01*
X143819135Y-102767813D01*
X143899090Y-103043704D01*
X143970406Y-103290005D01*
X144028659Y-103491416D01*
X144069422Y-103632636D01*
X144088272Y-103698365D01*
X144088493Y-103699158D01*
X144147578Y-103746782D01*
X144275938Y-103753981D01*
X144457287Y-103721907D01*
X144655893Y-103659086D01*
X144873283Y-103552584D01*
X145070850Y-103410681D01*
X145226059Y-103253074D01*
X145316377Y-103099462D01*
X145323593Y-103075412D01*
X145328906Y-102896399D01*
X145274973Y-102697102D01*
X145176717Y-102507108D01*
X145049060Y-102356006D01*
X144921280Y-102277693D01*
X144880323Y-102242470D01*
X144903311Y-102166613D01*
X144909846Y-102154131D01*
X144958519Y-101987484D01*
X144960543Y-101789546D01*
X144918908Y-101604158D01*
X144865649Y-101505666D01*
X144736359Y-101404900D01*
X144560687Y-101376447D01*
X144334047Y-101420591D01*
X144051850Y-101537617D01*
X144009847Y-101558708D01*
X143841109Y-101651400D01*
X143704060Y-101738585D01*
X143622690Y-101804655D01*
X143613583Y-101816502D01*
X143603792Y-101874991D01*
X135712854Y-101874991D01*
X135685743Y-101850602D01*
X135568412Y-101808437D01*
X135566906Y-101808427D01*
X135470525Y-101829062D01*
X135396638Y-101898205D01*
X135341046Y-102026712D01*
X135299546Y-102225440D01*
X135267940Y-102505246D01*
X135260167Y-102601220D01*
X135210309Y-103045302D01*
X135126834Y-103437180D01*
X134998848Y-103816071D01*
X134815454Y-104221196D01*
X134803447Y-104245211D01*
X134713313Y-104434053D01*
X134642785Y-104599585D01*
X134601583Y-104718043D01*
X134594944Y-104754867D01*
X129951692Y-104754867D01*
X129685724Y-104681772D01*
X129075130Y-104522676D01*
X128525573Y-104389489D01*
X128029922Y-104280673D01*
X127581044Y-104194692D01*
X127171807Y-104130007D01*
X126795078Y-104085083D01*
X126443726Y-104058381D01*
X126110618Y-104048365D01*
X126009364Y-104048412D01*
X125742374Y-104054613D01*
X125487819Y-104067999D01*
X125264317Y-104086847D01*
X125090485Y-104109433D01*
X124984943Y-104134034D01*
X124964895Y-104145093D01*
X124933641Y-104218766D01*
X124898078Y-104373390D01*
X124859904Y-104594973D01*
X124820817Y-104869525D01*
X124782515Y-105183054D01*
X124746694Y-105521570D01*
X124715053Y-105871081D01*
X124689289Y-106217598D01*
X124671100Y-106547128D01*
X124669835Y-106576873D01*
X124638871Y-107326030D01*
X124289567Y-107326030D01*
X123940263Y-107326030D01*
X123940263Y-107146239D01*
X123948006Y-106988935D01*
X123969507Y-106758157D01*
X124002166Y-106474146D01*
X124043386Y-106157142D01*
X124090571Y-105827388D01*
X124141123Y-105505123D01*
X124179648Y-105280712D01*
X124359467Y-104413485D01*
X124588464Y-103549769D01*
X124871399Y-102675826D01*
X124931612Y-102517569D01*
X127325225Y-102517569D01*
X127334243Y-102695560D01*
X127395257Y-102805816D01*
X127508676Y-102852577D01*
X127549883Y-102854869D01*
X127739012Y-102811384D01*
X127919332Y-102679269D01*
X128093626Y-102456032D01*
X128197385Y-102275564D01*
X128286768Y-102107428D01*
X128361086Y-101972965D01*
X128408388Y-101893594D01*
X128416768Y-101882359D01*
X128470758Y-101885351D01*
X128586334Y-101917814D01*
X128738676Y-101970204D01*
X128902961Y-102032980D01*
X129054369Y-102096600D01*
X129168079Y-102151523D01*
X129219269Y-102188205D01*
X129220038Y-102191158D01*
X129210993Y-102250003D01*
X129186659Y-102379989D01*
X129151236Y-102559145D01*
X129126019Y-102682983D01*
X129077570Y-102955253D01*
X129063386Y-103151486D01*
X129085885Y-103285284D01*
X129147481Y-103370252D01*
X129250590Y-103419993D01*
X129257240Y-103421901D01*
X129266768Y-103419141D01*
X130276990Y-103419141D01*
X130277128Y-103420858D01*
X130321618Y-103552189D01*
X130409028Y-103607283D01*
X130529081Y-103588771D01*
X130671499Y-103499283D01*
X130826004Y-103341448D01*
X130884832Y-103265354D01*
X131051311Y-103036921D01*
X131328571Y-103060639D01*
X131481460Y-103077102D01*
X131591693Y-103095293D01*
X131629227Y-103107754D01*
X131628057Y-103161367D01*
X131603237Y-103280996D01*
X131559989Y-103442013D01*
X131554121Y-103461902D01*
X131505073Y-103638942D01*
X131469791Y-103789854D01*
X131455641Y-103882989D01*
X131455618Y-103885035D01*
X131490894Y-104010929D01*
X131583660Y-104077345D01*
X131714329Y-104080555D01*
X131863310Y-104016836D01*
X131921455Y-103973623D01*
X132026488Y-103856546D01*
X132118013Y-103688727D01*
X132149516Y-103600040D01*
X132841741Y-103600040D01*
X132896942Y-103946558D01*
X132911515Y-103998939D01*
X133021260Y-104245009D01*
X133180279Y-104439634D01*
X133372994Y-104574741D01*
X133583826Y-104642256D01*
X133797196Y-104634105D01*
X133981449Y-104553443D01*
X134091837Y-104461610D01*
X134137137Y-104362449D01*
X134143071Y-104279941D01*
X134132312Y-104165636D01*
X134086534Y-104114803D01*
X134024158Y-104100814D01*
X133791911Y-104050050D01*
X133623797Y-103966045D01*
X133554804Y-103893727D01*
X133487241Y-103712943D01*
X133462603Y-103472136D01*
X133481088Y-103196280D01*
X133542891Y-102910347D01*
X133546966Y-102896747D01*
X133669162Y-102546123D01*
X133797726Y-102273474D01*
X133929658Y-102082055D01*
X134061956Y-101975119D01*
X134191621Y-101955923D01*
X134315651Y-102027719D01*
X134332235Y-102045041D01*
X134465030Y-102147345D01*
X134588303Y-102167881D01*
X134690201Y-102119981D01*
X134758872Y-102016980D01*
X134782465Y-101872210D01*
X134749128Y-101699005D01*
X134713053Y-101616608D01*
X134585805Y-101467389D01*
X134399263Y-101371101D01*
X134175959Y-101332152D01*
X133938424Y-101354951D01*
X133741470Y-101426523D01*
X133513198Y-101592047D01*
X133309110Y-101833985D01*
X133134643Y-102135483D01*
X132995236Y-102479691D01*
X132896326Y-102849754D01*
X132843348Y-103228821D01*
X132841741Y-103600040D01*
X132149516Y-103600040D01*
X132199070Y-103460537D01*
X132272700Y-103162345D01*
X132341945Y-102784521D01*
X132383286Y-102511143D01*
X132436617Y-102036169D01*
X132454430Y-101620649D01*
X132438080Y-101268894D01*
X132388920Y-100985219D01*
X132308304Y-100773934D01*
X132197585Y-100639352D01*
X132058118Y-100585785D01*
X131891255Y-100617545D01*
X131803273Y-100663470D01*
X131680120Y-100768262D01*
X131568853Y-100908014D01*
X131550932Y-100937952D01*
X131273231Y-101440662D01*
X131023839Y-101899147D01*
X130805523Y-102308011D01*
X130621052Y-102661856D01*
X130473195Y-102955288D01*
X130364720Y-103182910D01*
X130298396Y-103339327D01*
X130276990Y-103419141D01*
X129266768Y-103419141D01*
X129305313Y-103407975D01*
X129406401Y-103368848D01*
X129428540Y-103359689D01*
X129569386Y-103272065D01*
X129685336Y-103154808D01*
X129745166Y-103041554D01*
X129821094Y-102853737D01*
X129908385Y-102607761D01*
X130002307Y-102320031D01*
X130098125Y-102006954D01*
X130191104Y-101684933D01*
X130276511Y-101370375D01*
X130349613Y-101079685D01*
X130405674Y-100829267D01*
X130439961Y-100635527D01*
X130447740Y-100514870D01*
X130447590Y-100513293D01*
X130386389Y-100355087D01*
X130302544Y-100270146D01*
X130209865Y-100209563D01*
X130135516Y-100200575D01*
X130032165Y-100240031D01*
X130009714Y-100250658D01*
X129931628Y-100298124D01*
X129860129Y-100370298D01*
X129783674Y-100483768D01*
X129690724Y-100655121D01*
X129598036Y-100842332D01*
X129500739Y-101042410D01*
X129419392Y-101208478D01*
X129362431Y-101323397D01*
X129338291Y-101370032D01*
X129338226Y-101370119D01*
X129291332Y-101363198D01*
X129184655Y-101329459D01*
X129045938Y-101279360D01*
X128902921Y-101223360D01*
X128783346Y-101171918D01*
X128714953Y-101135492D01*
X128714073Y-101134811D01*
X128683673Y-101063654D01*
X128697976Y-100924231D01*
X128703612Y-100898009D01*
X128723579Y-100687854D01*
X128702461Y-100456734D01*
X128647492Y-100230593D01*
X128565908Y-100035372D01*
X128464941Y-99897015D01*
X128414058Y-99859650D01*
X128251956Y-99813638D01*
X128112200Y-99857991D01*
X127998102Y-99989867D01*
X127912976Y-100206423D01*
X127888957Y-100310113D01*
X127802470Y-100705910D01*
X127692721Y-101145264D01*
X127571474Y-101583282D01*
X127461532Y-101941423D01*
X127367791Y-102267604D01*
X127325225Y-102517569D01*
X124931612Y-102517569D01*
X125213031Y-101777917D01*
X125618119Y-100842302D01*
X125983768Y-100072285D01*
X126166849Y-99703425D01*
X126315708Y-99413329D01*
X126435679Y-99194246D01*
X126532100Y-99038424D01*
X126610305Y-98938113D01*
X126675633Y-98885560D01*
X126733418Y-98873014D01*
X126788998Y-98892724D01*
X126793795Y-98895641D01*
X126866058Y-98921491D01*
X126966489Y-98913420D01*
X127121553Y-98868519D01*
X127159767Y-98855449D01*
X127457306Y-98761693D01*
X127748823Y-98692329D01*
X128059889Y-98643272D01*
X128416072Y-98610430D01*
X128815731Y-98590661D01*
X129497743Y-98592742D01*
G37*
D12*
%TO.C,R1*%
X153400000Y-98910000D02*
X153400000Y-95860000D01*
X157700000Y-98910000D02*
X157700000Y-95860000D01*
X153400000Y-95860000D02*
G75*
G02*
X157668249Y-95815487I2150000J-1500000D01*
G01*
X157700000Y-98910000D02*
G75*
G02*
X153384475Y-98888234I-2150000J1550000D01*
G01*
%TD*%
%LPC*%
D14*
%TO.C,D1*%
X149500000Y-69000000D03*
D15*
X152040000Y-69000000D03*
%TD*%
D16*
%TO.C,R1*%
X155550000Y-99060000D03*
X155550000Y-95660000D03*
%TD*%
D17*
%TO.C,RV1*%
X114975000Y-97540000D03*
X117515000Y-95000000D03*
X120055000Y-97540000D03*
%TD*%
%TO.C,RV2*%
X117500000Y-84960000D03*
X120040000Y-87500000D03*
X117500000Y-90040000D03*
%TD*%
D18*
%TO.C,Q1*%
X156000000Y-82400000D03*
D19*
X154730000Y-80330000D03*
X153460000Y-82400000D03*
%TD*%
%LPD*%
M02*
