%TF.GenerationSoftware,KiCad,Pcbnew,8.0.7*%
%TF.CreationDate,2025-06-23T15:52:58+10:00*%
%TF.ProjectId,solder,736f6c64-6572-42e6-9b69-6361645f7063,rev?*%
%TF.SameCoordinates,Original*%
%TF.FileFunction,Copper,L2,Bot*%
%TF.FilePolarity,Positive*%
%FSLAX46Y46*%
G04 Gerber Fmt 4.6, Leading zero omitted, Abs format (unit mm)*
G04 Created by KiCad (PCBNEW 8.0.7) date 2025-06-23 15:52:58*
%MOMM*%
%LPD*%
G01*
G04 APERTURE LIST*
G04 Aperture macros list*
%AMRoundRect*
0 Rectangle with rounded corners*
0 $1 Rounding radius*
0 $2 $3 $4 $5 $6 $7 $8 $9 X,Y pos of 4 corners*
0 Add a 4 corners polygon primitive as box body*
4,1,4,$2,$3,$4,$5,$6,$7,$8,$9,$2,$3,0*
0 Add four circle primitives for the rounded corners*
1,1,$1+$1,$2,$3*
1,1,$1+$1,$4,$5*
1,1,$1+$1,$6,$7*
1,1,$1+$1,$8,$9*
0 Add four rect primitives between the rounded corners*
20,1,$1+$1,$2,$3,$4,$5,0*
20,1,$1+$1,$4,$5,$6,$7,0*
20,1,$1+$1,$6,$7,$8,$9,0*
20,1,$1+$1,$8,$9,$2,$3,0*%
G04 Aperture macros list end*
%TA.AperFunction,ComponentPad*%
%ADD10R,1.800000X1.800000*%
%TD*%
%TA.AperFunction,ComponentPad*%
%ADD11C,1.800000*%
%TD*%
%TA.AperFunction,ComponentPad*%
%ADD12C,1.500000*%
%TD*%
%TA.AperFunction,ComponentPad*%
%ADD13C,1.440000*%
%TD*%
%TA.AperFunction,SMDPad,CuDef*%
%ADD14R,1.270000X5.080000*%
%TD*%
%TA.AperFunction,SMDPad,CuDef*%
%ADD15C,17.800000*%
%TD*%
%TA.AperFunction,ComponentPad*%
%ADD16R,1.100000X1.800000*%
%TD*%
%TA.AperFunction,ComponentPad*%
%ADD17RoundRect,0.275000X0.275000X0.625000X-0.275000X0.625000X-0.275000X-0.625000X0.275000X-0.625000X0*%
%TD*%
%TA.AperFunction,ViaPad*%
%ADD18C,5.500000*%
%TD*%
%TA.AperFunction,ViaPad*%
%ADD19C,0.600000*%
%TD*%
%TA.AperFunction,Conductor*%
%ADD20C,0.200000*%
%TD*%
G04 APERTURE END LIST*
D10*
%TO.P,D1,1,K*%
%TO.N,Net-(D1-K)*%
X149500000Y-69000000D03*
D11*
%TO.P,D1,2,A*%
%TO.N,Net-(D1-A)*%
X152040000Y-69000000D03*
%TD*%
D12*
%TO.P,R1,1*%
%TO.N,Net-(Q1-B)*%
X155550000Y-99060000D03*
%TO.P,R1,2*%
%TO.N,Net-(BT1--)*%
X155550000Y-95660000D03*
%TD*%
D13*
%TO.P,RV1,1,1*%
%TO.N,Net-(BT1-+)*%
X114975000Y-97540000D03*
%TO.P,RV1,2,2*%
%TO.N,Net-(Q1-B)*%
X117515000Y-95000000D03*
%TO.P,RV1,3,3*%
%TO.N,unconnected-(RV1-Pad3)*%
X120055000Y-97540000D03*
%TD*%
%TO.P,RV2,1,1*%
%TO.N,Net-(BT1-+)*%
X117500000Y-84960000D03*
%TO.P,RV2,2,2*%
%TO.N,Net-(D1-K)*%
X120040000Y-87500000D03*
%TO.P,RV2,3,3*%
%TO.N,unconnected-(RV2-Pad3)*%
X117500000Y-90040000D03*
%TD*%
D14*
%TO.P,BT1,1,+*%
%TO.N,Net-(BT1-+)*%
X148485000Y-99000000D03*
X126515000Y-99000000D03*
D15*
%TO.P,BT1,2,-*%
%TO.N,Net-(BT1--)*%
X137500000Y-99000000D03*
%TD*%
D16*
%TO.P,Q1,1,C*%
%TO.N,Net-(D1-A)*%
X156000000Y-82400000D03*
D17*
%TO.P,Q1,2,B*%
%TO.N,Net-(Q1-B)*%
X154730000Y-80330000D03*
%TO.P,Q1,3,E*%
%TO.N,Net-(BT1--)*%
X153460000Y-82400000D03*
%TD*%
D18*
%TO.N,*%
X117900000Y-78600000D03*
D19*
%TO.N,Net-(BT1--)*%
X153450000Y-93600000D03*
%TO.N,Net-(D1-K)*%
X144000000Y-76000000D03*
%TO.N,Net-(D1-A)*%
X156000000Y-75750000D03*
%TO.N,Net-(Q1-B)*%
X157550000Y-92800000D03*
%TD*%
D20*
%TO.N,Net-(BT1-+)*%
X117500000Y-84960000D02*
X114975000Y-87485000D01*
X126515000Y-101115000D02*
X126515000Y-99000000D01*
X133600000Y-108200000D02*
X126515000Y-101115000D01*
X142025000Y-108200000D02*
X133600000Y-108200000D01*
X114975000Y-97540000D02*
X116435000Y-99000000D01*
X148485000Y-99000000D02*
X148485000Y-101740000D01*
X148485000Y-101740000D02*
X142025000Y-108200000D01*
X114975000Y-87485000D02*
X114975000Y-97540000D01*
X116435000Y-99000000D02*
X126515000Y-99000000D01*
%TO.N,Net-(BT1--)*%
X153460000Y-93590000D02*
X153450000Y-93600000D01*
X142900000Y-93600000D02*
X153450000Y-93600000D01*
X137500000Y-99000000D02*
X142900000Y-93600000D01*
X153460000Y-82000000D02*
X153460000Y-93590000D01*
%TO.N,Net-(D1-K)*%
X132500000Y-87500000D02*
X144000000Y-76000000D01*
X120040000Y-87500000D02*
X132500000Y-87500000D01*
%TO.N,Net-(D1-A)*%
X156000000Y-75750000D02*
X156000000Y-82000000D01*
%TO.N,Net-(Q1-B)*%
X125565686Y-95000000D02*
X139835686Y-80730000D01*
X154730000Y-80730000D02*
X154730000Y-89980000D01*
X154730000Y-80730000D02*
X154310000Y-81150000D01*
X139835686Y-80730000D02*
X154730000Y-80730000D01*
X154730000Y-89980000D02*
X157550000Y-92800000D01*
X117515000Y-95000000D02*
X125565686Y-95000000D01*
%TD*%
M02*
